{"title":"Hell Up In Harlem (1973) [thePiratePimp]","uid":11878933,"size":734165272,"categoryP":"video","categoryS":"movies","magnet":"?xt=urn:btih:479951c551586560f06780146c7f074342b0ce80&amp;dn=Hell+Up+In+Harlem+%281973%29+%5BthePiratePimp%5D&amp;tr=udp%3A%2F%2Ftracker.openbittorrent.com%3A80&amp;tr=udp%3A%2F%2Fopen.demonii.com%3A1337&amp;tr=udp%3A%2F%2Ftracker.coppersurfer.tk%3A6969&amp;tr=udp%3A%2F%2Fexodus.desync.com%3A6969","seeders":7,"leechers":2,"uploader":"thepiratepimp","files":1,"time":1430639160,"description":"Hell Up In Harlem (1973) [thePiratePimp]\n &lt;a href=&quot;\nhttps://yuq.me/users/23/020/8uq2hDPUtY.jpg&quot; rel=&quot;nofollow&quot; target=&quot;_NEW&quot;&gt;\nhttps://yuq.me/users/23/020/8uq2hDPUtY.jpg&lt;/a&gt; &lt;a href=&quot;\nhttps://yuq.me/users/23/020/0nCZLNGDMW.png&quot; rel=&quot;nofollow&quot; target=&quot;_NEW&quot;&gt;\nhttps://yuq.me/users/23/020/0nCZLNGDMW.png&lt;/a&gt;\n\nIn Harlem, N.Y., crime boss Tommy Gibbs (Fred Williamson) is gravely injured while escaping a hit ordered by the corrupt district attorney, DiAngelo (Gerald Gordon). As he recovers, his father, Papa Gibbs (Julius W. Harris), assumes control of the gang, which angers Tommy's best henchman, Zach (Tony King), who goes on to collaborate with DiAngelo and frame Papa Gibbs for the murder of Tommy's ex-wife. This sets off a series of bloody betrayals that ricochet within the crime world.\n\nGeneral\nComplete name : Hell Up In Harlem (1973) [thePiratePimp].avi\nFormat : AVI\nFormat/Info : Audio Video Interleave\nFile size : 700 MiB\nDuration : 1h 34mn\nOverall bit rate : 1 033 Kbps\nWriting application : MEncoder version Beta 4.4.5 building on 20110111\n\nVideo\nID : 0\nFormat : MPEG-4 Visual\nFormat profile : Advanced Simple@L5\nFormat settings, BVOP : 2\nFormat settings, QPel : No\nFormat settings, GMC : No warppoints\nFormat settings, Matrix : Default (H.263)\nCodec ID : XVID\nCodec ID/Hint : XviD\nDuration : 1h 34mn\nBit rate : 834 Kbps\nWidth : 720 pixels\nHeight : 404 pixels\nDisplay aspect ratio : 16:9\nFrame rate : 29.970 fps\nColor space : YUV\nChroma subsampling : 4:2:0\nBit depth : 8 bits\nScan type : Progressive\nCompression mode : Lossy\nBits/(Pixel*Frame) : 0.096\nStream size : 566 MiB (81%)\nWriting library : XviD 1.2.1 (UTC 2008-12-04)\n\nAudio\nID : 1\nFormat : AC-3\nFormat/Info : Audio Coding 3\nMode extension : CM (complete main)\nFormat settings, Endianness : Big\nCodec ID : 2000\nDuration : 1h 34mn\nBit rate mode : Constant\nBit rate : 192 Kbps\nChannel(s) : 2 channels\nChannel positions : Front: L R\nSampling rate : 48.0 KHz\nBit depth : 16 bits\nCompression mode : Lossy\nDelay relative to video : 33ms\nStream size : 130 MiB (19%)\nAlignment : Split accross interleaves\nInterleave, duration : 500 ms (14.98 video frames)\nInterleave, preload duration : 500 ms","torrent":{"xt":"urn:btih:479951c551586560f06780146c7f074342b0ce80","amp;dn":"Hell+Up+In+Harlem+%281973%29+%5BthePiratePimp%5D","amp;tr":["udp%3A%2F%2Ftracker.openbittorrent.com%3A80","udp%3A%2F%2Fopen.demonii.com%3A1337","udp%3A%2F%2Ftracker.coppersurfer.tk%3A6969","udp%3A%2F%2Fexodus.desync.com%3A6969"],"infoHash":"479951c551586560f06780146c7f074342b0ce80","infoHashBuffer":{"type":"Buffer","data":[71,153,81,197,81,88,101,96,240,103,128,20,108,127,7,67,66,176,206,128]},"announce":[],"urlList":[]}}